{
	"asset":{
		"generator":"Khronos glTF Blender I/O v4.1.62",
		"version":"2.0"
	},
	"scene":0,
	"scenes":[
		{
			"name":"Scene",
			"nodes":[
				43
			]
		}
	],
	"nodes":[
		{
			"name":"head0_end",
			"rotation":[
				1.126900315284729e-07,
				2.8870999813079834e-08,
				5.4016709327697754e-08,
				1
			],
			"translation":[
				2.384185791015625e-07,
				10.696551322937012,
				2.086162567138672e-07
			]
		},
		{
			"children":[
				0
			],
			"name":"head0",
			"rotation":[
				-0.08726458996534348,
				-1.0564593821982271e-07,
				0.008095083758234978,
				0.9961523413658142
			],
			"scale":[
				0.9999999403953552,
				0.9999999403953552,
				0.9999999403953552
			],
			"translation":[
				5.960464477539062e-07,
				3.5632314682006836,
				8.344650268554688e-07
			]
		},
		{
			"children":[
				1
			],
			"name":"neck1",
			"rotation":[
				-1.641456037759781e-07,
				7.962808012962341e-08,
				1.2991949915885925e-07,
				1
			],
			"translation":[
				-3.5762786865234375e-07,
				6.253574848175049,
				-2.115964889526367e-06
			]
		},
		{
			"children":[
				2
			],
			"name":"neck0",
			"rotation":[
				-0.2633569836616516,
				-0.04486531391739845,
				-0.0410798005759716,
				0.962778627872467
			],
			"translation":[
				8.791685104370117e-07,
				4.409466743469238,
				2.1383166313171387e-06
			]
		},
		{
			"name":"leg_front_left_toe_end",
			"rotation":[
				-3.129243282273819e-07,
				-2.911934586791176e-07,
				-2.930562459368957e-07,
				1
			],
			"translation":[
				1.702628651401028e-07,
				3.0000016689300537,
				9.949709465217893e-07
			]
		},
		{
			"children":[
				4
			],
			"name":"leg_front_left_toe",
			"rotation":[
				-0.6505627632141113,
				-0.07788237184286118,
				-0.07788336277008057,
				0.7514231204986572
			],
			"scale":[
				0.9999999403953552,
				0.9999999403953552,
				0.9999998807907104
			],
			"translation":[
				2.682209014892578e-07,
				6.364748954772949,
				2.980232238769531e-07
			]
		},
		{
			"children":[
				5
			],
			"name":"leg_front_left_ankle",
			"rotation":[
				0.09161290526390076,
				-0.37346014380455017,
				-0.016687963157892227,
				0.9229605197906494
			],
			"scale":[
				0.9999999403953552,
				0.9999999403953552,
				0.9999998807907104
			],
			"translation":[
				-4.76837158203125e-07,
				12.28901481628418,
				-7.152557373046875e-07
			]
		},
		{
			"children":[
				6
			],
			"name":"leg_front_left_bot0",
			"rotation":[
				-0.013616591691970825,
				-0.8672006726264954,
				-0.16221441328525543,
				0.47059983015060425
			],
			"scale":[
				0.9999999403953552,
				0.9999998807907104,
				0.9999999403953552
			],
			"translation":[
				-2.4010660126805305e-08,
				15.927850723266602,
				-9.234827302861959e-08
			]
		},
		{
			"children":[
				7
			],
			"name":"leg_front_left_top1",
			"rotation":[
				0.0017755200387910008,
				0.11325773596763611,
				-0.2708376944065094,
				0.9559374451637268
			],
			"translation":[
				0,
				7.221500396728516,
				-1.1920928955078125e-07
			]
		},
		{
			"children":[
				8
			],
			"name":"leg_front_left_top0",
			"rotation":[
				-0.29123160243034363,
				-0.7246759533882141,
				-0.6179845929145813,
				0.09013363718986511
			],
			"scale":[
				0.9999999403953552,
				1.000000238418579,
				1
			],
			"translation":[
				0.25541073083877563,
				4.606032371520996,
				1.4081047773361206
			]
		},
		{
			"name":"leg_front_right_toe_end",
			"rotation":[
				-3.725225461437276e-09,
				6.973277208999207e-07,
				4.917382057101349e-07,
				1
			],
			"translation":[
				-4.4593434722628444e-07,
				3.0000009536743164,
				-1.3395372207014589e-06
			]
		},
		{
			"children":[
				10
			],
			"name":"leg_front_right_toe",
			"rotation":[
				-0.20529189705848694,
				0.659390389919281,
				0.6593902111053467,
				0.29709285497665405
			],
			"scale":[
				1.0000001192092896,
				1.0000003576278687,
				1.0000001192092896
			],
			"translation":[
				7.152557373046875e-07,
				8.673088073730469,
				-2.2649765014648438e-06
			]
		},
		{
			"children":[
				11
			],
			"name":"leg_front_right_ankle",
			"rotation":[
				-0.042025126516819,
				-0.8678304553031921,
				-0.048259567469358444,
				0.4927223026752472
			],
			"scale":[
				1,
				0.9999997615814209,
				0.9999998807907104
			],
			"translation":[
				1.2516975402832031e-06,
				8.162873268127441,
				-4.76837158203125e-07
			]
		},
		{
			"children":[
				12
			],
			"name":"leg_front_right_bot0",
			"rotation":[
				2.5476122544887403e-08,
				0.9870305061340332,
				0.06205800548195839,
				0.14805258810520172
			],
			"scale":[
				0.9999999403953552,
				0.9999998807907104,
				1
			],
			"translation":[
				9.983764357457403e-07,
				17.119998931884766,
				-6.298051289377327e-07
			]
		},
		{
			"children":[
				13
			],
			"name":"leg_front_right_top1",
			"rotation":[
				1.2971479179668677e-07,
				-0.4339774250984192,
				0.40624064207077026,
				0.8041344285011292
			],
			"scale":[
				1.0000001192092896,
				1,
				1
			],
			"translation":[
				-1.1920928955078125e-07,
				9.142694473266602,
				-1.1920928955078125e-07
			]
		},
		{
			"children":[
				14
			],
			"name":"leg_front_right_top0",
			"rotation":[
				0.5904999375343323,
				-0.6170404553413391,
				-0.5165579319000244,
				0.06114538758993149
			],
			"scale":[
				0.9999999403953552,
				1.0000004768371582,
				1
			],
			"translation":[
				-0.34411585330963135,
				4.4572296142578125,
				1.3413602113723755
			]
		},
		{
			"children":[
				3,
				9,
				15
			],
			"name":"body_top1",
			"rotation":[
				-0.049659308046102524,
				0.013759681023657322,
				0.011099525727331638,
				0.998609721660614
			],
			"scale":[
				1.0000001192092896,
				0.9999998211860657,
				1
			],
			"translation":[
				2.5331974029541016e-07,
				4.609232425689697,
				-1.2293457984924316e-06
			]
		},
		{
			"children":[
				16
			],
			"name":"body_top0",
			"rotation":[
				0.08985553681850433,
				-0.006552009377628565,
				-0.006029236596077681,
				0.9959149956703186
			],
			"scale":[
				1,
				1,
				1.0000001192092896
			],
			"translation":[
				-5.801121005788445e-07,
				3.9628632068634033,
				1.9202270777896047e-06
			]
		},
		{
			"name":"tail6_end",
			"rotation":[
				3.743917318388412e-07,
				1.4528632164001465e-07,
				4.889443516731262e-07,
				1
			],
			"scale":[
				1,
				0.9999998807907104,
				0.9999999403953552
			],
			"translation":[
				4.76837158203125e-07,
				3.063488006591797,
				-2.384185791015625e-07
			]
		},
		{
			"children":[
				18
			],
			"name":"tail6",
			"rotation":[
				0.015065685845911503,
				0.03667985275387764,
				0.1872025579214096,
				0.9815206527709961
			],
			"scale":[
				1.0000001192092896,
				1.0000001192092896,
				0.9999998807907104
			],
			"translation":[
				1.6689300537109375e-06,
				5.080112457275391,
				1.5497207641601562e-06
			]
		},
		{
			"children":[
				19
			],
			"name":"tail5",
			"rotation":[
				0.03772692009806633,
				0.029098400846123695,
				0.0014479812234640121,
				0.9988633394241333
			],
			"scale":[
				1,
				1,
				0.9999999403953552
			],
			"translation":[
				-2.384185791015625e-07,
				8.099688529968262,
				5.960464477539062e-07
			]
		},
		{
			"children":[
				20
			],
			"name":"tail4",
			"rotation":[
				0.14943669736385345,
				0.15173716843128204,
				0.49928608536720276,
				0.8398559093475342
			],
			"scale":[
				0.9999999403953552,
				0.9999999403953552,
				1
			],
			"translation":[
				5.960464477539062e-07,
				5.024168968200684,
				-2.205371856689453e-06
			]
		},
		{
			"children":[
				21
			],
			"name":"tail3",
			"rotation":[
				0.09032706171274185,
				0.1748121678829193,
				0.11147663742303848,
				0.9740917086601257
			],
			"scale":[
				0.9999998807907104,
				0.9999998807907104,
				0.9999998211860657
			],
			"translation":[
				4.023313522338867e-06,
				5.560084819793701,
				-5.3942203521728516e-06
			]
		},
		{
			"children":[
				22
			],
			"name":"tail2",
			"rotation":[
				0.07235398888587952,
				0.17155469954013824,
				0.06738854199647903,
				0.9802002906799316
			],
			"scale":[
				0.9999998807907104,
				0.9999998807907104,
				0.9999999403953552
			],
			"translation":[
				-9.5367431640625e-07,
				6.0304951667785645,
				5.602836608886719e-06
			]
		},
		{
			"children":[
				23
			],
			"name":"tail1",
			"rotation":[
				0.014276307076215744,
				0.7217649817466736,
				-0.18985529243946075,
				0.6654370427131653
			],
			"scale":[
				0.9999998807907104,
				0.9999999403953552,
				1
			],
			"translation":[
				-7.152557373046875e-07,
				11.138140678405762,
				5.960464477539062e-07
			]
		},
		{
			"children":[
				24
			],
			"name":"tail0",
			"rotation":[
				-0.23219364881515503,
				0.1363723874092102,
				-0.07502035796642303,
				0.9601357579231262
			],
			"scale":[
				1,
				1.0000001192092896,
				1.0000001192092896
			],
			"translation":[
				5.513429641723633e-07,
				14.958731651306152,
				-5.662441253662109e-07
			]
		},
		{
			"children":[
				25
			],
			"name":"pelvis",
			"rotation":[
				-0.25440657138824463,
				0.004950562492012978,
				-0.003703383030369878,
				0.9670776128768921
			],
			"scale":[
				0.9999999403953552,
				0.9999999403953552,
				0.9999998807907104
			],
			"translation":[
				-4.6193599700927734e-07,
				13.521178245544434,
				2.9783695936203003e-06
			]
		},
		{
			"name":"leg_hind_right_toe_end",
			"rotation":[
				-1.117546499784794e-08,
				-1.1864956377394265e-06,
				-1.415610881849716e-07,
				1
			],
			"translation":[
				-3.293553163530305e-08,
				3.0000014305114746,
				-2.302483324001514e-07
			]
		},
		{
			"children":[
				27
			],
			"name":"leg_hind_right_toe",
			"rotation":[
				-0.49070388078689575,
				-0.4241313934326172,
				-0.42413413524627686,
				0.6320067048072815
			],
			"scale":[
				0.9999998807907104,
				0.9999998211860657,
				0.9999998211860657
			],
			"translation":[
				-2.384185791015625e-07,
				14.183053016662598,
				4.76837158203125e-07
			]
		},
		{
			"children":[
				28
			],
			"name":"leg_hind_right_ankle",
			"rotation":[
				-0.5562251806259155,
				0.5127695202827454,
				-0.3557213842868805,
				0.5487651824951172
			],
			"scale":[
				1,
				1,
				1.0000001192092896
			],
			"translation":[
				4.172325134277344e-07,
				19.66144371032715,
				2.0265579223632812e-06
			]
		},
		{
			"children":[
				29
			],
			"name":"leg_hind_right_bot0",
			"rotation":[
				1.632276394047949e-07,
				0.798793375492096,
				-0.6001111268997192,
				0.042376354336738586
			],
			"scale":[
				0.9999998807907104,
				1.000000238418579,
				0.9999999403953552
			],
			"translation":[
				1.1027368600480258e-06,
				14.51986312866211,
				2.7912960831599776e-07
			]
		},
		{
			"children":[
				30
			],
			"name":"leg_hind_right_top1",
			"rotation":[
				3.307031306576391e-07,
				0.7885329723358154,
				0.5423208475112915,
				0.2900065779685974
			],
			"scale":[
				0.9999999403953552,
				0.9999997615814209,
				0.9999997615814209
			],
			"translation":[
				1.1920928955078125e-07,
				18.733566284179688,
				0
			]
		},
		{
			"children":[
				31
			],
			"name":"leg_hind_right_top0",
			"rotation":[
				-0.935314953327179,
				0.21336878836154938,
				-0.1972435861825943,
				0.20187801122665405
			],
			"scale":[
				0.9999999403953552,
				1,
				0.9999999403953552
			],
			"translation":[
				-0.1634930819272995,
				13.168336868286133,
				-1.2290315628051758
			]
		},
		{
			"name":"leg_hind_left_toe_end",
			"rotation":[
				-3.2533824878555606e-07,
				1.671400582381466e-06,
				5.165750280866632e-07,
				1
			],
			"translation":[
				-2.570777724031359e-08,
				2.9999990463256836,
				2.2812207589595346e-07
			]
		},
		{
			"children":[
				33
			],
			"name":"leg_hind_left_toe",
			"rotation":[
				-0.5357967019081116,
				0.2692965865135193,
				0.269300252199173,
				0.7535772323608398
			],
			"scale":[
				0.9999999403953552,
				0.9999999403953552,
				0.9999999403953552
			],
			"translation":[
				0,
				14.067033767700195,
				-1.430511474609375e-06
			]
		},
		{
			"children":[
				34
			],
			"name":"leg_hind_left_ankle",
			"rotation":[
				-0.5021911859512329,
				-0.5258141160011292,
				0.12096420675516129,
				0.6757892966270447
			],
			"scale":[
				1,
				0.9999998807907104,
				1
			],
			"translation":[
				0,
				10.143674850463867,
				-9.5367431640625e-07
			]
		},
		{
			"children":[
				35
			],
			"name":"leg_hind_left_bot0",
			"rotation":[
				-0.01639370061457157,
				-0.8935703635215759,
				0.39606353640556335,
				0.2107059210538864
			],
			"scale":[
				0.9999999403953552,
				0.9999999403953552,
				0.9999999403953552
			],
			"translation":[
				6.088230293244123e-07,
				13.629048347473145,
				-1.849652107921429e-06
			]
		},
		{
			"children":[
				36
			],
			"name":"leg_hind_left_top1",
			"rotation":[
				-0.008346796967089176,
				-0.45478883385658264,
				-0.2934854328632355,
				0.8408113718032837
			],
			"scale":[
				1,
				0.9999998807907104,
				0.9999999403953552
			],
			"translation":[
				-7.748603820800781e-07,
				9.287247657775879,
				1.4901161193847656e-07
			]
		},
		{
			"children":[
				37
			],
			"name":"leg_hind_left_top0",
			"rotation":[
				-0.5366371870040894,
				-0.607103168964386,
				0.5732219815254211,
				0.12191338837146759
			],
			"scale":[
				0.9999998807907104,
				0.9999998211860657,
				0.9999998211860657
			],
			"translation":[
				0.2521636188030243,
				13.465492248535156,
				-1.4115524291992188
			]
		},
		{
			"children":[
				26,
				32,
				38
			],
			"name":"body_bot",
			"rotation":[
				0.9973958134651184,
				-0.0020000517833977938,
				-0.0018602008931338787,
				0.07207036763429642
			],
			"scale":[
				0.9999998807907104,
				1.0000001192092896,
				1.0000050067901611
			],
			"translation":[
				0.0006935828714631498,
				0.9888856410980225,
				-0.11589181423187256
			]
		},
		{
			"children":[
				17,
				39
			],
			"name":"body",
			"rotation":[
				0.7359529137611389,
				-7.414833330665616e-11,
				-1.5056256415846292e-05,
				0.6770327687263489
			],
			"scale":[
				1,
				0.9999999403953552,
				0.9999999403953552
			],
			"translation":[
				-5.65008020401001,
				44.650428771972656,
				1.1504520177841187
			]
		},
		{
			"children":[
				40
			],
			"name":"root",
			"rotation":[
				-0.7071031928062439,
				0,
				0,
				0.7071103453636169
			],
			"translation":[
				0,
				0,
				30.82045555114746
			]
		},
		{
			"mesh":0,
			"name":"model",
			"skin":0
		},
		{
			"children":[
				42,
				41
			],
			"name":"rig",
			"rotation":[
				0.7071068286895752,
				0,
				0,
				0.7071068286895752
			]
		}
	],
	"materials":[
		{
			"doubleSided":true,
			"name":"tripo_material_23c38a2e-8764-4cc2-80e2-8fc7524cb5ad.001",
			"normalTexture":{
				"index":0
			},
			"pbrMetallicRoughness":{
				"baseColorTexture":{
					"index":1
				},
				"metallicFactor":0,
				"roughnessFactor":0.5
			}
		}
	],
	"meshes":[
		{
			"name":"model",
			"primitives":[
				{
					"attributes":{
						"POSITION":0,
						"NORMAL":1,
						"TEXCOORD_0":2,
						"JOINTS_0":3,
						"WEIGHTS_0":4
					},
					"indices":5,
					"material":0
				}
			]
		}
	],
	"textures":[
		{
			"sampler":0,
			"source":0
		},
		{
			"sampler":0,
			"source":1
		}
	],
	"images":[
		{
			"bufferView":6,
			"mimeType":"image/jpeg",
			"name":"NormalGL_23c38a2e-8764-4cc2-80e2-8fc7524cb5ad"
		},
		{
			"bufferView":7,
			"mimeType":"image/jpeg",
			"name":"Color_23c38a2e-8764-4cc2-80e2-8fc7524cb5ad"
		}
	],
	"skins":[
		{
			"inverseBindMatrices":6,
			"joints":[
				41,
				40,
				17,
				16,
				3,
				2,
				1,
				0,
				9,
				8,
				7,
				6,
				5,
				4,
				15,
				14,
				13,
				12,
				11,
				10,
				39,
				26,
				25,
				24,
				23,
				22,
				21,
				20,
				19,
				18,
				32,
				31,
				30,
				29,
				28,
				27,
				38,
				37,
				36,
				35,
				34,
				33
			],
			"name":"rig"
		}
	],
	"accessors":[
		{
			"bufferView":0,
			"componentType":5126,
			"count":11832,
			"max":[
				17.80951499938965,
				30.820459365844727,
				35.11296844482422
			],
			"min":[
				-17.80951499938965,
				-30.820453643798828,
				-35.11296463012695
			],
			"type":"VEC3"
		},
		{
			"bufferView":1,
			"componentType":5126,
			"count":11832,
			"type":"VEC3"
		},
		{
			"bufferView":2,
			"componentType":5126,
			"count":11832,
			"type":"VEC2"
		},
		{
			"bufferView":3,
			"componentType":5121,
			"count":11832,
			"type":"VEC4"
		},
		{
			"bufferView":4,
			"componentType":5126,
			"count":11832,
			"type":"VEC4"
		},
		{
			"bufferView":5,
			"componentType":5123,
			"count":59541,
			"type":"SCALAR"
		},
		{
			"bufferView":8,
			"componentType":5126,
			"count":42,
			"type":"MAT4"
		}
	],
	"bufferViews":[
		{
			"buffer":0,
			"byteLength":141984,
			"byteOffset":0,
			"target":34962
		},
		{
			"buffer":0,
			"byteLength":141984,
			"byteOffset":141984,
			"target":34962
		},
		{
			"buffer":0,
			"byteLength":94656,
			"byteOffset":283968,
			"target":34962
		},
		{
			"buffer":0,
			"byteLength":47328,
			"byteOffset":378624,
			"target":34962
		},
		{
			"buffer":0,
			"byteLength":189312,
			"byteOffset":425952,
			"target":34962
		},
		{
			"buffer":0,
			"byteLength":119082,
			"byteOffset":615264,
			"target":34963
		},
		{
			"buffer":0,
			"byteLength":134826,
			"byteOffset":734348
		},
		{
			"buffer":0,
			"byteLength":237538,
			"byteOffset":869176
		},
		{
			"buffer":0,
			"byteLength":2688,
			"byteOffset":1106716
		}
	],
	"samplers":[
		{
			"magFilter":9729,
			"minFilter":9987
		}
	],
	"buffers":[
		{
			"byteLength":1109404,
			"uri":"data:application/octet-stream;base64,"
		}
	]
}
