{
	"asset":{
		"generator":"Khronos glTF Blender I/O v4.1.62",
		"version":"2.0"
	},
	"scene":0,
	"scenes":[
		{
			"name":"Scene",
			"nodes":[
				42
			]
		}
	],
	"nodes":[
		{
			"name":"head0_end",
			"rotation":[
				3.3527616238870905e-08,
				1.266598843585598e-07,
				-2.6077035641947077e-08,
				1
			],
			"scale":[
				0.9999999403953552,
				0.9999999403953552,
				0.9999999403953552
			],
			"translation":[
				-2.1457672119140625e-06,
				19.655101776123047,
				-1.9073486328125e-06
			]
		},
		{
			"children":[
				0
			],
			"name":"head0",
			"rotation":[
				0.7558683753013611,
				-0.1318819224834442,
				-0.451413094997406,
				0.45551779866218567
			],
			"scale":[
				1.0000001192092896,
				1,
				1
			],
			"translation":[
				5.662441253662109e-07,
				9.975000381469727,
				-8.298084139823914e-07
			]
		},
		{
			"children":[
				1
			],
			"name":"neck1",
			"rotation":[
				-0.3380242586135864,
				0.047400929033756256,
				0.1401299238204956,
				0.9294387102127075
			],
			"scale":[
				1,
				0.9999999403953552,
				1
			],
			"translation":[
				1.7881393432617188e-07,
				12.735998153686523,
				-1.5050172805786133e-06
			]
		},
		{
			"children":[
				2
			],
			"name":"neck0",
			"rotation":[
				0.07952021807432175,
				-0.019836237654089928,
				-0.04771147295832634,
				0.9954931735992432
			],
			"scale":[
				0.9999999403953552,
				0.9999998807907104,
				0.9999999403953552
			],
			"translation":[
				-1.4901161193847656e-08,
				8.088597297668457,
				1.3522803783416748e-06
			]
		},
		{
			"name":"leg_front_left_toe_end",
			"rotation":[
				1.676381344850597e-08,
				1.307344206225025e-07,
				1.9371501025489124e-07,
				1
			],
			"scale":[
				1,
				0.9999998807907104,
				1
			],
			"translation":[
				8.437996257271152e-08,
				2.999997854232788,
				4.4919829633727204e-08
			]
		},
		{
			"children":[
				4
			],
			"name":"leg_front_left_toe",
			"rotation":[
				-0.2761523723602295,
				-0.6564124822616577,
				-0.6564125418663025,
				0.24896827340126038
			],
			"scale":[
				1.0000001192092896,
				1,
				1
			],
			"translation":[
				-1.7881393432617188e-07,
				7.0051774978637695,
				7.152557373046875e-07
			]
		},
		{
			"children":[
				5
			],
			"name":"leg_front_left_ankle",
			"rotation":[
				-0.13376761972904205,
				-0.8688822984695435,
				-0.28944534063339233,
				0.3786439001560211
			],
			"scale":[
				0.9999998807907104,
				0.9999998211860657,
				1
			],
			"translation":[
				1.9073486328125e-06,
				9.645730018615723,
				1.0728836059570312e-06
			]
		},
		{
			"children":[
				6
			],
			"name":"leg_front_left_bot0",
			"rotation":[
				0.018146932125091553,
				0.668316662311554,
				0.3073751628398895,
				0.677158772945404
			],
			"scale":[
				1,
				0.9999998807907104,
				1.0000001192092896
			],
			"translation":[
				-9.604082151781768e-08,
				9.213578224182129,
				-5.352558218874037e-08
			]
		},
		{
			"children":[
				7
			],
			"name":"leg_front_left_top1",
			"rotation":[
				-0.019173908978700638,
				-0.7061356902122498,
				-0.2122923731803894,
				0.6752309203147888
			],
			"scale":[
				0.9999999403953552,
				1,
				0.9999999403953552
			],
			"translation":[
				-1.4901161193847656e-08,
				8.750138282775879,
				-1.3085082173347473e-07
			]
		},
		{
			"children":[
				8
			],
			"name":"leg_front_left_top0",
			"rotation":[
				0.53422611951828,
				-0.2655433714389801,
				-0.5927725434303284,
				0.541026771068573
			],
			"scale":[
				1,
				1,
				1.0000001192092896
			],
			"translation":[
				0.0679967850446701,
				-0.6156812310218811,
				0.7850545048713684
			]
		},
		{
			"name":"leg_front_right_toe_end",
			"rotation":[
				2.9895477382524405e-07,
				7.228229037536948e-07,
				6.109476089477539e-07,
				1
			],
			"translation":[
				-2.8567592380568385e-07,
				3.0000016689300537,
				1.9272974896011874e-06
			]
		},
		{
			"children":[
				10
			],
			"name":"leg_front_right_toe",
			"rotation":[
				-0.3773244321346283,
				0.5882245898246765,
				0.5882253050804138,
				0.406950980424881
			],
			"scale":[
				0.9999997019767761,
				0.9999995231628418,
				0.9999998807907104
			],
			"translation":[
				5.960464477539062e-07,
				8.607558250427246,
				8.940696716308594e-07
			]
		},
		{
			"children":[
				11
			],
			"name":"leg_front_right_ankle",
			"rotation":[
				0.37233468890190125,
				-0.5953538417816162,
				-0.5810096859931946,
				0.4115197956562042
			],
			"scale":[
				0.9999998211860657,
				0.9999998211860657,
				0.9999998211860657
			],
			"translation":[
				2.45409864874091e-07,
				4.101221084594727,
				3.686282980197575e-06
			]
		},
		{
			"children":[
				12
			],
			"name":"leg_front_right_bot0",
			"rotation":[
				-1.5321373325605236e-07,
				-0.715675413608551,
				-0.6984331011772156,
				9.071835620488855e-07
			],
			"scale":[
				1,
				0.9999998807907104,
				1
			],
			"translation":[
				1.162663465947844e-06,
				15.200003623962402,
				-3.742434273590334e-08
			]
		},
		{
			"children":[
				13
			],
			"name":"leg_front_right_top1",
			"rotation":[
				1.768866866314056e-07,
				-0.054049715399742126,
				0.2522854804992676,
				0.9661421775817871
			],
			"scale":[
				1.0000001192092896,
				1.0000001192092896,
				1.0000001192092896
			],
			"translation":[
				3.5762786865234375e-07,
				14.667057991027832,
				-4.023313522338867e-07
			]
		},
		{
			"children":[
				14
			],
			"name":"leg_front_right_top0",
			"rotation":[
				-0.15875910222530365,
				0.4198933243751526,
				0.8779114484786987,
				0.16660337150096893
			],
			"scale":[
				0.9999998807907104,
				1.0000001192092896,
				1
			],
			"translation":[
				0.06799648702144623,
				7.472917556762695,
				0.7850560545921326
			]
		},
		{
			"children":[
				3,
				9,
				15
			],
			"name":"body_top1",
			"rotation":[
				-0.2693418860435486,
				-0.018191521987318993,
				-0.014110149815678596,
				0.9627693891525269
			],
			"scale":[
				1.0000001192092896,
				1.0000001192092896,
				1.0000001192092896
			],
			"translation":[
				1.341104507446289e-07,
				6.3474531173706055,
				-1.7136335372924805e-07
			]
		},
		{
			"children":[
				16
			],
			"name":"body_top0",
			"rotation":[
				-0.09689629822969437,
				-0.016083773225545883,
				-0.015838123857975006,
				0.9950385093688965
			],
			"scale":[
				1,
				1,
				0.9999999403953552
			],
			"translation":[
				-3.166496753692627e-08,
				5.915022850036621,
				-1.1604279279708862e-06
			]
		},
		{
			"name":"tail5_end",
			"rotation":[
				-1.5460500435438007e-07,
				-8.352799341082573e-09,
				3.138461934781844e-08,
				1
			],
			"scale":[
				0.9999999403953552,
				0.9999999403953552,
				1
			],
			"translation":[
				1.5832483768463135e-07,
				5.876664161682129,
				-7.062917575240135e-07
			]
		},
		{
			"children":[
				18
			],
			"name":"tail5",
			"rotation":[
				0.0627073273062706,
				0.0016189722809940577,
				-0.1550109088420868,
				0.9859192967414856
			],
			"scale":[
				0.9999999403953552,
				0.9999999403953552,
				0.9999999403953552
			],
			"translation":[
				-2.9802322387695312e-08,
				0.14963582158088684,
				5.308538675308228e-07
			]
		},
		{
			"children":[
				19
			],
			"name":"tail4",
			"rotation":[
				1.0381336323916912e-06,
				-2.0349398255348206e-07,
				1.6298145055770874e-06,
				1
			],
			"translation":[
				2.9802322387695312e-08,
				0.15555885434150696,
				8.03731381893158e-07
			]
		},
		{
			"children":[
				20
			],
			"name":"tail3",
			"rotation":[
				9.946408681571484e-06,
				-1.2367963790893555e-06,
				2.7696078177541494e-06,
				1
			],
			"scale":[
				1,
				1,
				0.9999998807907104
			],
			"translation":[
				-2.9802322387695312e-08,
				0.1490403711795807,
				1.957640051841736e-06
			]
		},
		{
			"children":[
				21
			],
			"name":"tail2",
			"rotation":[
				-1.0399437996966299e-05,
				1.2968665714652161e-06,
				-2.924759883171646e-06,
				1
			],
			"scale":[
				1.0000001192092896,
				1.0000001192092896,
				1.0000001192092896
			],
			"translation":[
				1.1920928955078125e-07,
				0.14530080556869507,
				-7.739290595054626e-07
			]
		},
		{
			"children":[
				22
			],
			"name":"tail1",
			"rotation":[
				2.2083985129484063e-07,
				-6.891787052154541e-08,
				1.2724775615424733e-06,
				1
			],
			"scale":[
				1.0000001192092896,
				1.0000001192092896,
				1
			],
			"translation":[
				-1.1920928955078125e-07,
				0.32787173986434937,
				8.987262845039368e-07
			]
		},
		{
			"children":[
				23
			],
			"name":"tail0",
			"rotation":[
				0.5575405955314636,
				-0.06929422169923782,
				0.1513713300228119,
				0.8132856488227844
			],
			"scale":[
				0.9999999403953552,
				0.9999998807907104,
				1
			],
			"translation":[
				-3.5762786865234375e-07,
				6.717166423797607,
				-4.246830940246582e-07
			]
		},
		{
			"children":[
				24
			],
			"name":"pelvis",
			"rotation":[
				0.12068857997655869,
				0.04860936477780342,
				-0.050641246140003204,
				0.9902054667472839
			],
			"scale":[
				1,
				0.9999998807907104,
				0.9999999403953552
			],
			"translation":[
				0.18993496894836426,
				11.435449600219727,
				1.3435652256011963
			]
		},
		{
			"name":"leg_hind_right_toe_end",
			"rotation":[
				-3.209954684280092e-07,
				-1.4804027159698308e-07,
				-2.1215308156075086e-12,
				1
			],
			"scale":[
				1,
				0.9999998807907104,
				1
			],
			"translation":[
				-7.572133995381591e-07,
				3.0000061988830566,
				4.980502126272768e-07
			]
		},
		{
			"children":[
				26
			],
			"name":"leg_hind_right_toe",
			"rotation":[
				-0.7163235545158386,
				-0.07807917147874832,
				-0.07808414846658707,
				0.6889753937721252
			],
			"scale":[
				1.0000001192092896,
				1,
				1
			],
			"translation":[
				1.0728836059570312e-06,
				11.70937442779541,
				4.76837158203125e-07
			]
		},
		{
			"children":[
				27
			],
			"name":"leg_hind_right_ankle",
			"rotation":[
				-0.524300754070282,
				0.4351726174354553,
				-0.0667247548699379,
				0.7288904786109924
			],
			"scale":[
				1.0000001192092896,
				0.9999998211860657,
				0.9999999403953552
			],
			"translation":[
				-7.152557373046875e-07,
				12.395097732543945,
				1.430511474609375e-06
			]
		},
		{
			"children":[
				28
			],
			"name":"leg_hind_right_bot0",
			"rotation":[
				-5.610830612567952e-06,
				0.7622103691101074,
				-0.5424587726593018,
				0.3532335162162781
			],
			"translation":[
				3.073596417380031e-07,
				7.100375175476074,
				1.1430520316935144e-06
			]
		},
		{
			"children":[
				29
			],
			"name":"leg_hind_right_top1",
			"rotation":[
				-6.545780451006067e-08,
				0.7967585921287537,
				0.3836510479450226,
				0.4668915867805481
			],
			"scale":[
				1,
				1.0000003576278687,
				1.0000001192092896
			],
			"translation":[
				-4.76837158203125e-07,
				12.340340614318848,
				0
			]
		},
		{
			"children":[
				30
			],
			"name":"leg_hind_right_top0",
			"rotation":[
				-0.8382824063301086,
				0.3295944333076477,
				-0.3325124979019165,
				0.2794380784034729
			],
			"scale":[
				1,
				1,
				0.9999999403953552
			],
			"translation":[
				-4.470348358154297e-07,
				11.096989631652832,
				-1.1734664440155029e-07
			]
		},
		{
			"name":"leg_hind_left_toe_end",
			"rotation":[
				-3.129204060314805e-07,
				-1.185931211011848e-07,
				2.9305962812031794e-07,
				1
			],
			"translation":[
				4.58669092040509e-07,
				3.0000038146972656,
				-1.3080498320050538e-06
			]
		},
		{
			"children":[
				32
			],
			"name":"leg_hind_left_toe",
			"rotation":[
				-0.7890496253967285,
				-0.15163984894752502,
				-0.1516321748495102,
				0.5756855010986328
			],
			"scale":[
				0.9999999403953552,
				1,
				1
			],
			"translation":[
				-3.5762786865234375e-07,
				12.363456726074219,
				2.384185791015625e-07
			]
		},
		{
			"children":[
				33
			],
			"name":"leg_hind_left_ankle",
			"rotation":[
				-0.3613603115081787,
				0.04557347297668457,
				-0.08742433786392212,
				0.9271994829177856
			],
			"scale":[
				1,
				0.9999999403953552,
				0.9999998211860657
			],
			"translation":[
				2.384185791015625e-07,
				5.565154075622559,
				9.5367431640625e-07
			]
		},
		{
			"children":[
				34
			],
			"name":"leg_hind_left_bot0",
			"rotation":[
				1.687306621533935e-06,
				-0.8500154614448547,
				0.5073509216308594,
				0.14166435599327087
			],
			"scale":[
				1,
				0.9999997615814209,
				1
			],
			"translation":[
				-1.8711398297455162e-07,
				9.400503158569336,
				1.3626940926769748e-06
			]
		},
		{
			"children":[
				35
			],
			"name":"leg_hind_left_top1",
			"rotation":[
				1.0792861075969995e-06,
				-0.373421847820282,
				-0.35751256346702576,
				0.8560028672218323
			],
			"scale":[
				0.9999999403953552,
				1,
				1
			],
			"translation":[
				1.430511474609375e-06,
				11.671989440917969,
				-1.3113021850585938e-06
			]
		},
		{
			"children":[
				36
			],
			"name":"leg_hind_left_top0",
			"rotation":[
				-0.5169395208358765,
				-0.595903217792511,
				0.6144901514053345,
				0.008652075193822384
			],
			"scale":[
				0.9999999403953552,
				0.9999998211860657,
				0.9999999403953552
			],
			"translation":[
				0.48611941933631897,
				11.265451431274414,
				-0.02680945210158825
			]
		},
		{
			"children":[
				25,
				31,
				37
			],
			"name":"body_bot",
			"rotation":[
				0.9996708631515503,
				-0.008095359429717064,
				0.0017571782227605581,
				0.02428143285214901
			],
			"scale":[
				1.0000001192092896,
				1.0000001192092896,
				1.0000015497207642
			],
			"translation":[
				-0.0020733680576086044,
				0.9999696016311646,
				-0.005216225981712341
			]
		},
		{
			"children":[
				17,
				38
			],
			"name":"body",
			"rotation":[
				0.7326993942260742,
				3.495481237791864e-08,
				0.006805095821619034,
				0.680518388748169
			],
			"scale":[
				0.9999999403953552,
				1,
				1
			],
			"translation":[
				-1.7952152490615845,
				33.384639739990234,
				-13.248974800109863
			]
		},
		{
			"children":[
				39
			],
			"name":"root",
			"rotation":[
				-0.7071031928062439,
				0,
				0,
				0.7071103453636169
			],
			"translation":[
				0,
				0,
				30.88825035095215
			]
		},
		{
			"mesh":0,
			"name":"model",
			"skin":0
		},
		{
			"children":[
				41,
				40
			],
			"name":"rig",
			"rotation":[
				0.7071068286895752,
				0,
				0,
				0.7071068286895752
			]
		}
	],
	"materials":[
		{
			"doubleSided":true,
			"name":"tripo_material_32c61565-f04f-4aac-83f5-f6bf923b04b0.001",
			"normalTexture":{
				"index":0
			},
			"pbrMetallicRoughness":{
				"baseColorTexture":{
					"index":1
				},
				"metallicFactor":0,
				"roughnessFactor":0.5
			}
		}
	],
	"meshes":[
		{
			"name":"model",
			"primitives":[
				{
					"attributes":{
						"POSITION":0,
						"NORMAL":1,
						"TEXCOORD_0":2,
						"JOINTS_0":3,
						"WEIGHTS_0":4
					},
					"indices":5,
					"material":0
				}
			]
		}
	],
	"textures":[
		{
			"sampler":0,
			"source":0
		},
		{
			"sampler":0,
			"source":1
		}
	],
	"images":[
		{
			"mimeType":"image/jpeg",
			"name":"NormalGL_32c61565-f04f-4aac-83f5-f6bf923b04b0",
			"uri":"NormalGL_32c61565-f04f-4aac-83f5-f6bf923b04b0.jpg"
		},
		{
			"mimeType":"image/jpeg",
			"name":"Color_32c61565-f04f-4aac-83f5-f6bf923b04b0",
			"uri":"Color_32c61565-f04f-4aac-83f5-f6bf923b04b0.jpg"
		}
	],
	"skins":[
		{
			"inverseBindMatrices":6,
			"joints":[
				40,
				39,
				17,
				16,
				3,
				2,
				1,
				0,
				9,
				8,
				7,
				6,
				5,
				4,
				15,
				14,
				13,
				12,
				11,
				10,
				38,
				25,
				24,
				23,
				22,
				21,
				20,
				19,
				18,
				31,
				30,
				29,
				28,
				27,
				26,
				37,
				36,
				35,
				34,
				33,
				32
			],
			"name":"rig"
		}
	],
	"accessors":[
		{
			"bufferView":0,
			"componentType":5126,
			"count":11640,
			"max":[
				17.799806594848633,
				30.888248443603516,
				35.05826950073242
			],
			"min":[
				-17.799806594848633,
				-30.88825035095215,
				-35.05826950073242
			],
			"type":"VEC3"
		},
		{
			"bufferView":1,
			"componentType":5126,
			"count":11640,
			"type":"VEC3"
		},
		{
			"bufferView":2,
			"componentType":5126,
			"count":11640,
			"type":"VEC2"
		},
		{
			"bufferView":3,
			"componentType":5121,
			"count":11640,
			"type":"VEC4"
		},
		{
			"bufferView":4,
			"componentType":5126,
			"count":11640,
			"type":"VEC4"
		},
		{
			"bufferView":5,
			"componentType":5123,
			"count":59541,
			"type":"SCALAR"
		},
		{
			"bufferView":6,
			"componentType":5126,
			"count":41,
			"type":"MAT4"
		}
	],
	"bufferViews":[
		{
			"buffer":0,
			"byteLength":139680,
			"byteOffset":0,
			"target":34962
		},
		{
			"buffer":0,
			"byteLength":139680,
			"byteOffset":139680,
			"target":34962
		},
		{
			"buffer":0,
			"byteLength":93120,
			"byteOffset":279360,
			"target":34962
		},
		{
			"buffer":0,
			"byteLength":46560,
			"byteOffset":372480,
			"target":34962
		},
		{
			"buffer":0,
			"byteLength":186240,
			"byteOffset":419040,
			"target":34962
		},
		{
			"buffer":0,
			"byteLength":119082,
			"byteOffset":605280,
			"target":34963
		},
		{
			"buffer":0,
			"byteLength":2624,
			"byteOffset":724364
		}
	],
	"samplers":[
		{
			"magFilter":9729,
			"minFilter":9987
		}
	],
	"buffers":[
		{
			"byteLength":726988,
			"uri":"model.bin"
		}
	]
}
